# Blender 4.1.1
# www.blender.org
mtllib bust.mtl
o model
v -0.088188 -0.152470 0.043840
v -0.064545 -0.149917 0.074193
v -0.079845 -0.207529 0.087868
v -0.103488 -0.210083 0.057514
v -0.044305 -0.209126 0.102741
v -0.006391 -0.214444 0.098149
v 0.038009 -0.229930 0.040374
v 0.027493 -0.239729 -0.039107
v 0.051136 -0.237175 -0.008753
v -0.026585 -0.236905 -0.042553
v -0.064499 -0.231587 -0.037960
v -0.079328 -0.166360 -0.028808
v -0.094629 -0.223972 -0.015133
v -0.093599 -0.158489 0.006139
v -0.108900 -0.216101 0.019814
v -0.095358 -0.320493 0.118129
v -0.058522 -0.316620 0.137006
v -0.017017 -0.315349 0.135038
v 0.026019 -0.224648 0.080800
v 0.018038 -0.317023 0.112754
v 0.039529 -0.323781 0.081603
v 0.035466 -0.326739 0.034961
v 0.013170 -0.332177 0.000298
v -0.023666 -0.336051 -0.018578
v -0.078244 -0.336794 -0.041611
v -0.100225 -0.335648 0.005674
v -0.134993 -0.326807 0.027346
v -0.117654 -0.325932 0.083466
v -0.186321 -0.342681 0.142073
v -0.098294 -0.342190 0.227866
v -0.105097 -0.407340 0.235219
v -0.193124 -0.407832 0.149426
v 0.000641 -0.348213 0.266027
v -0.006161 -0.413363 0.273380
v 0.083975 -0.359137 0.246329
v 0.077172 -0.424288 0.253682
v 0.129378 -0.372035 0.174051
v 0.124684 -0.383451 0.068561
v 0.136804 -0.514735 0.164563
v 0.087494 -0.561000 -0.057522
v 0.141027 -0.554126 0.052915
v -0.016875 -0.390817 -0.127670
v -0.000533 -0.561492 -0.143316
v -0.115811 -0.384794 -0.165830
v -0.108384 -0.527494 -0.175318
v -0.199144 -0.373870 -0.146133
v -0.205947 -0.439020 -0.138780
v -0.244547 -0.360972 -0.073855
v -0.251350 -0.426122 -0.066502
v -0.239853 -0.349556 0.031636
v -0.246656 -0.414706 0.038989
v -0.217548 -0.298175 -0.067500
v -0.213366 -0.288003 0.026493
v -0.177094 -0.309667 -0.131899
v -0.102844 -0.319400 -0.149450
v -0.014693 -0.324767 -0.115449
v 0.066858 -0.413775 -0.039974
v 0.059445 -0.347778 -0.037104
v 0.111437 -0.318204 0.059393
v 0.115618 -0.308032 0.153385
v 0.075164 -0.296540 0.217784
v 0.000914 -0.286807 0.235335
v -0.087237 -0.281440 0.201334
v -0.165669 -0.281878 0.124893
v -0.153619 -0.250822 -0.043452
v -0.125844 -0.267830 -0.089094
v -0.073310 -0.283645 -0.100669
v -0.010093 -0.294031 -0.075074
v 0.046868 -0.296204 -0.019169
v 0.082310 -0.289582 0.052068
v 0.086737 -0.275940 0.119549
v 0.058962 -0.258933 0.165191
v 0.006428 -0.243117 0.176766
v -0.056789 -0.232732 0.151172
v -0.113750 -0.230558 0.095266
v -0.149192 -0.237180 0.024029
v -0.087648 -0.253531 -0.030784
v -0.069300 -0.265807 -0.060212
v -0.034850 -0.276647 -0.067217
v 0.006470 -0.283148 -0.049922
v 0.043588 -0.283567 -0.012960
v 0.066560 -0.277793 0.033763
v 0.069228 -0.267373 0.077729
v 0.050880 -0.255097 0.107157
v 0.016430 -0.244257 0.114162
v -0.024890 -0.237757 0.096867
v -0.062009 -0.237337 0.059905
v -0.084980 -0.243111 0.013182
v -0.029701 -0.154135 0.089689
v -0.036946 -0.151156 0.085743
v 0.004397 -0.173823 0.088507
v 0.019685 -0.185745 0.077196
v 0.043068 -0.210879 0.035853
v 0.038408 -0.204573 0.048611
v 0.041201 -0.213279 0.023795
v 0.026585 -0.223218 -0.039738
v 0.050636 -0.228074 -0.009101
v -0.000690 -0.208374 -0.041943
v -0.017205 -0.201583 -0.050937
v -0.051302 -0.181895 -0.049755
v -0.067339 -0.169390 -0.037891
v -0.088990 -0.148168 -0.006754
v -0.078271 -0.161517 -0.032073
v -0.075331 -0.163335 -0.032596
v -0.062473 -0.140616 0.071995
v -0.065017 -0.140292 0.068095
v -0.085599 -0.137081 0.038586
v -0.090524 -0.143585 0.006184
v -0.091431 -0.144957 -0.000390
v 0.032493 -0.194712 0.071276
v -0.016223 -0.130383 0.082872
v -0.023468 -0.127405 0.078927
v 0.017875 -0.150072 0.081691
v 0.056547 -0.187127 0.029036
v 0.051886 -0.180821 0.041795
v 0.054679 -0.189528 0.016979
v -0.053861 -0.145638 -0.044707
v -0.061853 -0.139584 -0.039413
v -0.048995 -0.116864 0.065179
v -0.051538 -0.116540 0.061279
v -0.075512 -0.124416 -0.013570
v -0.064793 -0.137765 -0.038890
v -0.072121 -0.113329 0.031770
v 0.045971 -0.170960 0.064459
v 0.012788 -0.184622 -0.048759
v -0.003726 -0.177832 -0.057753
v -0.077953 -0.121205 -0.007206
v 0.033163 -0.161993 0.070380
v 0.064114 -0.204322 -0.015917
v -0.077046 -0.119833 -0.000632
v -0.037824 -0.158143 -0.056572
v 0.040063 -0.199466 -0.046554
vn -0.7570 0.3343 0.5615
vn -0.3561 0.3043 0.8835
vn 0.1445 0.1920 0.9707
vn 0.6080 0.0269 0.7935
vn 0.9042 -0.1447 0.4018
vn 0.9566 -0.2762 -0.0932
vn 0.7879 0.0198 -0.6154
vn 0.3561 -0.3043 -0.8835
vn -0.1445 -0.1920 -0.9707
vn -0.6080 -0.0269 -0.7935
vn -0.9042 0.1447 -0.4018
vn -0.9566 0.2762 0.0932
vn -0.9284 -0.0461 -0.3688
vn -0.7720 0.2612 0.5794
vn -0.3524 0.3262 0.8771
vn 0.1584 0.3243 0.9326
vn 0.5158 0.2399 0.8224
vn 0.9549 0.1323 0.2659
vn 0.9638 -0.0401 0.2635
vn 0.7521 -0.3536 -0.5561
vn 0.0497 -0.2334 -0.9711
vn -0.1133 0.0492 -0.9923
vn -0.6181 -0.1139 -0.7778
vn -0.8950 0.1833 -0.4068
vn -0.9668 0.2348 0.1013
vn 0.0366 -0.9906 0.1319
vn -0.8364 0.2152 0.5042
vn -0.9407 0.1795 0.2879
vn -0.4605 0.2882 0.8396
vn 0.0360 0.2992 0.9535
vn 0.5288 0.2418 0.8136
vn 0.8291 0.1174 0.5466
vn 0.9961 -0.0214 -0.0854
vn 0.8076 -0.3667 -0.4619
vn 0.4500 -0.4083 -0.7943
vn 0.3828 -0.2065 -0.9005
vn -0.8977 0.1319 -0.4205
vn -0.5477 -0.1266 -0.8270
vn -0.6206 -0.1453 -0.7706
vn -0.3584 0.2896 0.8875
vn -0.7601 0.3208 0.5651
vn -0.9739 0.2006 0.1065
vn -0.9366 -0.0187 -0.3498
vn -0.4160 -0.4443 -0.7935
vn -0.7867 0.3024 0.5382
vn 0.9665 0.0627 0.2490
vn 0.0618 -0.0347 -0.9975
vn 0.0028 -0.9997 0.0255
vn 0.5046 0.1607 0.8482
vn 0.9487 -0.1110 0.2959
vn -0.1932 -0.9780 0.0789
vn -0.2003 -0.9767 0.0771
vn -0.6903 0.1519 0.7074
vn -0.3488 0.1410 0.9265
vn 0.2396 0.0841 0.9672
vn 0.8442 -0.0277 0.5353
vn 0.9972 0.0552 -0.0503
vn 0.8897 0.1254 -0.4391
vn 0.6915 0.1313 -0.7103
vn 0.3630 0.0806 -0.9283
vn -0.2396 -0.0841 -0.9672
vn -0.8442 0.0277 -0.5353
vn -0.9937 0.1074 0.0326
vn -0.8943 0.1413 0.4247
vn -0.9186 0.3951 -0.0019
vn -0.1032 -0.9884 0.1116
vn -0.7521 0.3780 -0.5399
vn -0.1872 0.2735 -0.9435
vn 0.3637 0.1578 -0.9180
vn 0.7332 0.1115 -0.6708
vn 0.8648 0.1067 -0.4906
vn 0.9797 0.1899 -0.0641
vn 0.8256 0.3262 0.4604
vn 0.2607 0.4307 0.8640
vn -0.3026 0.4272 0.8520
vn -0.6401 0.4024 0.6545
vn -0.8371 0.3921 0.3814
vn -0.5788 0.8131 -0.0622
vn -0.3703 0.8460 -0.3836
vn -0.0301 0.8148 -0.5790
vn 0.2777 0.7489 -0.6017
vn 0.7255 0.3771 -0.5757
vn 0.6611 0.5394 -0.5215
vn 0.7900 0.6049 -0.1006
vn 0.6604 0.6920 0.2914
vn 0.2411 0.7669 0.5948
vn -0.1931 0.7599 0.6207
vn -0.4668 0.7462 0.4746
vn -0.6063 0.7559 0.2469
vn 0.0790 0.9761 -0.2025
vn -0.6194 0.7764 -0.1163
vn -0.5993 0.7677 0.2268
vn -0.3762 0.7698 -0.5157
vn 0.0465 0.6860 -0.7261
vn 0.3796 0.6215 -0.6853
vn 0.5565 0.6293 -0.5425
vn 0.8235 0.3548 -0.4427
vn 0.7121 0.6776 -0.1837
vn 0.6647 0.7357 0.1304
vn 0.3479 0.8100 0.4721
vn -0.1064 0.8018 0.5881
vn -0.4376 0.7632 0.4755
vn 0.1122 0.9515 -0.2863
vn 0.1828 0.8989 -0.3983
vn 0.1829 0.8988 -0.3983
vn 0.1829 0.8989 -0.3983
vn 0.3491 0.7542 -0.5562
vn 0.6279 0.4683 -0.6216
vn 0.6279 0.4684 -0.6216
vn 0.8064 0.3971 -0.4381
vn 0.7432 0.6447 -0.1791
vn 0.5060 0.8625 -0.0135
vn 0.5060 0.8624 -0.0135
vn 0.2941 0.9553 0.0296
vn 0.1608 0.9870 0.0032
vn 0.1609 0.9870 0.0032
vn 0.0924 0.9942 -0.0554
vn 0.0923 0.9942 -0.0554
vn 0.0500 0.9919 -0.1170
vn 0.2473 0.9394 -0.2377
vn 0.0503 0.9711 -0.2332
vn 0.0651 0.9859 -0.1538
vn 0.1016 0.9391 -0.3284
vn -0.1032 -0.9884 0.1115
vn 0.3161 0.1166 -0.9415
vn -0.3662 -0.8818 0.2973
vn 0.9955 0.0949 0.0042
vn -0.3128 0.0468 -0.9486
vn -0.5253 -0.7473 0.4070
vn 0.8342 0.0068 0.5514
vn 0.8468 0.1784 -0.5010
vn 0.7345 0.1809 -0.6540
vn -0.1464 -0.1953 -0.9698
vn 0.4788 0.8438 -0.2422
vn 0.6287 -0.5221 -0.5763
vn -0.8654 0.5000 0.0312
vn -0.2933 0.4138 0.8618
vn 0.4287 0.0159 0.9033
vn 0.8650 -0.5007 -0.0343
vn 0.5538 -0.0763 0.8291
vn -0.0557 -0.2461 -0.9676
vn 0.2974 -0.4154 -0.8596
vn -0.6678 0.5292 0.5234
vn -0.5233 0.0529 -0.8505
vn -0.5538 0.0763 -0.8291
vn -0.6883 0.5321 0.4931
vn 0.8465 -0.3707 0.3822
vn 0.8406 -0.3612 0.4036
vn -0.2974 0.4154 0.8596
vn -0.8160 0.3260 -0.4774
vn 0.1464 0.1953 0.9698
vn -0.2522 -0.1320 -0.9586
vn -0.8048 0.3117 -0.5051
vn -0.8676 0.4970 0.0161
vn 0.8209 -0.3326 0.4643
vt 0.000000 0.000000
vt 0.249510 0.599675
vt 0.240146 0.605371
vt 0.237881 0.606858
vt 0.236739 0.609150
vt 0.231266 0.620544
vt 0.231904 0.634467
vt 0.231926 0.636268
vt 0.237789 0.646264
vt 0.239443 0.649116
vt 0.251612 0.656249
vt 0.259461 0.656017
vt 0.265248 0.656954
vt 0.272344 0.651045
vt 0.276804 0.648012
vt 0.278828 0.643764
vt 0.289425 0.635374
vt 0.287827 0.620329
vt 0.278792 0.613621
vt 0.275021 0.607121
vt 0.262852 0.599988
vt 0.254618 0.600231
vt 0.250652 0.600156
s 0
usemtl mat21
f 4/1/1 3/1/1 2/1/1 1/1/1
f 2/1/2 3/1/2 5/1/2 89/1/2 90/1/2
f 89/1/3 5/1/3 6/1/3 91/1/3
f 91/1/4 6/1/4 92/1/4
f 7/1/5 93/1/5 94/1/5
f 7/1/6 95/1/6 93/1/6
f 97/1/7 9/1/7 8/1/7 96/1/7
f 99/1/8 98/1/8 10/1/8
f 10/1/9 11/1/9 100/1/9 99/1/9
f 100/1/10 11/1/10 13/1/10 12/1/10 101/1/10
f 13/1/11 15/1/11 14/1/11 12/1/11
f 15/1/12 4/1/12 1/1/12 14/1/12
f 12/1/13 14/1/13 102/1/13 103/1/13
f 16/1/14 3/1/14 4/1/14
f 3/1/15 17/1/15 5/1/15
f 5/1/16 18/1/16 6/1/16
f 6/1/17 20/1/17 19/1/17
f 21/1/18 7/1/18 19/1/18
f 22/1/19 9/1/19 7/1/19
f 23/1/20 8/1/20 9/1/20
f 10/1/21 8/1/21 24/1/21
f 11/1/22 10/1/22 25/1/22
f 13/1/23 11/1/23 26/1/23
f 27/1/24 15/1/24 13/1/24
f 27/1/25 4/1/25 15/1/25
f 24/1/26 23/1/26 22/1/26 20/1/26 18/1/26 17/1/26 16/1/26 28/1/26 26/1/26
f 16/1/27 4/1/27 28/1/27
f 28/1/28 4/1/28 27/1/28
f 3/1/29 16/1/29 17/1/29
f 5/1/30 17/1/30 18/1/30
f 6/1/31 18/1/31 20/1/31
f 20/1/32 21/1/32 19/1/32
f 21/1/33 22/1/33 7/1/33
f 22/1/34 23/1/34 9/1/34
f 24/1/35 8/1/35 23/1/35
f 25/1/36 10/1/36 24/1/36
f 26/1/37 11/1/37 25/1/37
f 27/1/38 13/1/38 26/1/38
f 104/1/39 101/1/39 12/1/39
f 105/1/40 2/1/40 90/1/40
f 107/1/41 1/1/41 2/1/41 106/1/41
f 14/1/42 1/1/42 107/1/42 108/1/42 109/1/42
f 14/1/43 109/1/43 102/1/43
f 103/1/44 104/1/44 12/1/44
f 105/1/45 106/1/45 2/1/45
f 95/1/46 7/1/46 9/1/46 97/1/46
f 8/1/47 10/1/47 98/1/47 96/1/47
f 26/1/48 25/1/48 24/1/48
f 6/1/49 19/1/49 110/1/49 92/1/49
f 94/1/50 110/1/50 19/1/50 7/1/50
f 20/1/51 22/1/51 21/1/51
f 28/1/52 27/1/52 26/1/52
f 32/1/53 31/1/53 30/1/53 29/1/53
f 31/1/54 34/1/54 33/1/54 30/1/54
f 34/1/55 36/1/55 35/1/55 33/1/55
f 36/1/56 37/1/56 35/1/56
f 39/1/57 38/1/57 37/1/57
f 41/1/58 40/1/58 38/1/58
f 42/1/59 40/1/59 43/1/59
f 44/1/60 42/1/60 45/1/60
f 46/1/61 44/1/61 47/1/61
f 47/1/62 49/1/62 48/1/62 46/1/62
f 49/1/63 51/1/63 50/1/63 48/1/63
f 51/1/64 32/1/64 29/1/64 50/1/64
f 53/1/65 52/1/65 48/1/65 50/1/65
f 34/1/66 31/1/66 32/1/66 51/1/66 49/1/66 47/1/66 36/1/66
f 52/1/67 54/1/67 46/1/67 48/1/67
f 54/1/68 55/1/68 44/1/68 46/1/68
f 55/1/69 56/1/69 42/1/69 44/1/69
f 56/1/70 58/1/70 57/1/70 42/1/70
f 58/1/71 59/1/71 38/1/71 57/1/71
f 59/1/72 60/1/72 37/1/72 38/1/72
f 60/1/73 61/1/73 35/1/73 37/1/73
f 61/1/74 62/1/74 33/1/74 35/1/74
f 62/1/75 63/1/75 30/1/75 33/1/75
f 63/1/76 64/1/76 29/1/76 30/1/76
f 64/1/77 53/1/77 50/1/77 29/1/77
f 53/1/78 65/1/78 52/1/78
f 52/1/79 66/1/79 54/1/79
f 54/1/80 67/1/80 55/1/80
f 55/1/81 68/1/81 56/1/81
f 58/1/82 56/1/82 69/1/82
f 59/1/83 58/1/83 70/1/83
f 60/1/84 59/1/84 71/1/84
f 61/1/85 60/1/85 72/1/85
f 62/1/86 61/1/86 73/1/86
f 63/1/87 62/1/87 74/1/87
f 64/1/88 63/1/88 75/1/88
f 64/1/89 75/1/89 53/1/89
f 76/1/90 77/1/90 65/1/90
f 53/1/91 76/1/91 65/1/91
f 53/1/92 75/1/92 76/1/92
f 65/1/93 66/1/93 52/1/93
f 66/1/94 67/1/94 54/1/94
f 67/1/95 68/1/95 55/1/95
f 69/1/96 56/1/96 68/1/96
f 58/1/97 69/1/97 70/1/97
f 59/1/98 70/1/98 71/1/98
f 60/1/99 71/1/99 72/1/99
f 73/1/100 61/1/100 72/1/100
f 62/1/101 73/1/101 74/1/101
f 63/1/102 74/1/102 75/1/102
f 65/1/103 78/1/103 66/1/103
f 78/1/104 79/1/105 67/1/106 66/1/106
f 79/1/107 80/1/107 68/1/107 67/1/107
f 80/1/108 81/1/109 69/1/108 68/1/109
f 81/1/110 82/1/110 70/1/110 69/1/110
f 82/1/111 83/1/111 71/1/111 70/1/111
f 83/1/112 84/1/113 72/1/113 71/1/113
f 84/1/114 85/1/114 73/1/114 72/1/114
f 85/1/115 86/1/115 74/1/116 73/1/115
f 86/1/117 87/1/117 75/1/118 74/1/117
f 75/1/119 87/1/119 76/1/119
f 78/1/120 77/1/120 88/1/120 87/1/120 86/1/120 85/1/120 84/1/120 83/1/120 82/1/120 81/1/120 80/1/120 79/1/120
f 76/1/121 88/1/121 77/1/121
f 76/1/122 87/1/122 88/1/122
f 77/1/123 78/1/123 65/1/123
f 43/1/124 40/1/124 41/1/124
f 45/1/125 42/1/125 43/1/125
f 45/1/126 43/1/126 41/1/126
f 39/1/127 41/1/127 38/1/127
f 45/1/126 41/1/126 39/1/126
f 47/1/128 44/1/128 45/1/128
f 39/1/129 47/1/129 45/1/129
f 36/1/130 39/1/130 37/1/130
f 39/1/129 36/1/129 47/1/129
f 40/1/131 57/1/131 38/1/131
f 57/1/132 40/1/132 42/1/132
f 99/1/133 100/1/133 131/1/133 126/1/133
f 122/2/134 121/3/134 127/4/134 130/5/134 123/6/134 120/7/134 119/8/134 112/9/134 111/10/134 113/11/134 128/12/134 124/13/134 115/14/134 114/15/134 116/16/134 129/17/134 132/18/134 125/19/134 126/20/134 131/21/134 117/22/134 118/23/134
f 97/1/135 96/1/135 132/1/135 129/1/135
f 108/1/136 107/1/136 123/1/136 130/1/136
f 105/1/137 90/1/137 112/1/137 119/1/137
f 92/1/138 110/1/138 124/1/138 128/1/138
f 93/1/139 95/1/139 116/1/139 114/1/139
f 91/1/140 92/1/140 128/1/140 113/1/140
f 96/1/141 98/1/141 125/1/141 132/1/141
f 98/1/142 99/1/142 126/1/142 125/1/142
f 107/1/143 106/1/143 120/1/143 123/1/143
f 101/1/144 104/1/144 118/1/144 117/1/144
f 100/1/145 101/1/145 117/1/145 131/1/145
f 106/1/146 105/1/146 119/1/146 120/1/146
f 110/1/147 94/1/147 115/1/147 124/1/147
f 95/1/148 97/1/148 129/1/148 116/1/148
f 90/1/149 89/1/149 111/1/149 112/1/149
f 102/1/150 109/1/150 127/1/150 121/1/150
f 89/1/151 91/1/151 113/1/151 111/1/151
f 104/1/152 103/1/152 122/1/152 118/1/152
f 103/1/153 102/1/153 121/1/153 122/1/153
f 109/1/154 108/1/154 130/1/154 127/1/154
f 94/1/155 93/1/155 114/1/155 115/1/155
